# File created by Blade
# Date/Time:  Thu Sep 25 17:14:50 2014
# Frame Rate: 120.000 fps
#------------------------------------------------------
:FULLY-SPECIFIED
:DEGREES
910
root -14.059861 32.880595 9.001977 368.919317 4.049936 359.982949
Spine -8.344832 6.951061 3.399887
Head -16.228579 -3.397676 2.987421
LeftShoulder -16.727823 20.395725 27.458384
LeftArm 16.742581 -27.005447 -29.387649
LeftForeArm 12.733162 -0.000000 12.620626
LeftHand -31.886074 -0.000000 -1.357661
LeftHandThumb1 -26.253704 0.000000 33.147579
RightShoulder -19.422146 16.821247 -45.268590
RightArm -11.909474 12.307674 25.804707
RightForeArm -27.343741 -0.000000 15.865147
RightHand -16.567882 -0.000000 0.027929
RightHandThumb1 -24.326973 -0.000000 -32.862282
LeftUpLeg 4.441430 3.099360 2.553357
LeftLeg -3.265372 -0.000000 0.000000
LeftFoot -8.284629 8.498937 -27.889427
LeftToeBase 0.250854 -0.000000 -0.000000
RightUpLeg 2.716224 -6.645186 4.030968
RightLeg -2.902635 -0.000000 0.000000
RightFoot -4.980558 3.213944 -7.103530
RightToeBase -4.553104 -0.000000 0.000000
911
root -13.998742 32.851639 8.975005 368.888881 4.064198 359.802381
Spine -8.180669 6.680301 3.693434
Head -16.593430 -3.573998 3.295203
LeftShoulder -16.662599 20.504641 27.357213
LeftArm 17.024836 -27.091187 -29.319640
LeftForeArm 12.879736 -0.000000 12.783726
LeftHand -31.840662 -0.000000 -0.567463
LeftHandThumb1 -26.253704 0.000000 33.147579
RightShoulder -19.568480 16.583338 -45.131645
RightArm -11.666272 12.258074 25.621877
RightForeArm -27.568869 -0.000000 16.078709
RightHand -16.595170 -0.000000 0.078493
RightHandThumb1 -24.326973 -0.000000 -32.862282
LeftUpLeg 4.479214 3.508542 2.652943
LeftLeg -3.333483 -0.000000 0.000000
LeftFoot -8.421716 7.987817 -27.776790
LeftToeBase 0.309211 -0.000000 -0.000000
RightUpLeg 2.617306 -7.241184 4.151451
RightLeg -2.734353 -0.000000 0.000000
RightFoot -5.355238 3.430800 -7.130293
RightToeBase -4.486837 -0.000000 0.000000
912
root -13.936786 32.816188 8.945264 368.949468 4.026916 359.613931
Spine -8.168494 6.453281 3.987533
Head -16.814418 -3.706192 3.569344
LeftShoulder -16.609617 20.709058 27.309349
LeftArm 17.312441 -27.334970 -29.375834
LeftForeArm 12.796872 -0.000000 13.076346
LeftHand -31.787591 -0.000000 -0.265709
LeftHandThumb1 -26.253704 0.000000 33.147579
RightShoulder -19.684388 16.378061 -45.078032
RightArm -11.375065 11.955409 25.504693
RightForeArm -27.688170 -0.000000 16.217915
RightHand -16.550826 0.000000 0.225309
RightHandThumb1 -24.326973 -0.000000 -32.862282
LeftUpLeg 4.433254 3.886896 2.724413
LeftLeg -3.409082 -0.000000 0.000000
LeftFoot -8.714251 7.615747 -27.590121
LeftToeBase 0.456378 -0.000000 -0.000000
RightUpLeg 2.461643 -7.581200 4.275272
RightLeg -2.636621 -0.000000 0.000000
RightFoot -5.723077 3.500228 -7.210637
RightToeBase -4.374882 -0.000000 0.000000
913
root -13.882590 32.778880 8.915749 369.068125 3.928258 359.387726
Spine -8.235865 6.433639 4.263372
Head -16.995920 -3.946542 3.830724
LeftShoulder -16.442576 20.938418 27.183271
LeftArm 17.673117 -27.412894 -29.141473
LeftForeArm 12.964822 0.000000 12.966250
LeftHand -33.069982 0.000000 0.837491
LeftHandThumb1 -26.253704 0.000000 33.147579
RightShoulder -19.881897 16.054661 -44.962455
RightArm -11.040629 11.557597 25.334461
RightForeArm -27.800319 -0.000000 16.349407
RightHand -16.582485 0.000000 0.302864
RightHandThumb1 -24.326973 -0.000000 -32.862282
LeftUpLeg 4.332370 4.244925 2.815649
LeftLeg -3.489762 -0.000000 0.000000
LeftFoot -9.110670 7.366445 -27.445590
LeftToeBase 0.715100 -0.000000 -0.000000
RightUpLeg 2.112601 -8.021690 4.488246
RightLeg -2.275356 -0.000000 0.000000
RightFoot -6.261815 3.496126 -7.676479
RightToeBase -4.103634 -0.000000 0.000000
914
root -13.823237 32.739911 8.893612 369.207442 3.756859 359.197993
Spine -8.361197 6.449317 4.505422
Head -17.085852 -4.145193 4.003018
LeftShoulder -16.446151 21.518162 26.970313
LeftArm 18.407018 -27.495794 -29.021813
LeftForeArm 12.733668 -0.000000 12.706077
LeftHand -33.443828 0.000000 1.425482
LeftHandThumb1 -26.253704 0.000000 33.147579
RightShoulder -19.992622 15.819575 -44.883833
RightArm -10.769618 10.960048 25.174614
RightForeArm -27.838308 -0.000000 16.446165
RightHand -16.661292 -0.000000 0.232614
RightHandThumb1 -24.326973 -0.000000 -32.862282
LeftUpLeg 4.242974 4.631016 2.831313
LeftLeg -3.588612 -0.000000 0.000000
LeftFoot -9.542963 7.236419 -27.260437
LeftToeBase 1.028335 -0.000000 -0.000000
RightUpLeg 1.748772 -8.333387 4.644747
RightLeg -1.913256 -0.000000 0.000000
RightFoot -6.861601 3.662035 -7.920317
RightToeBase -3.743093 -0.000000 0.000000
915
root -13.771767 32.700729 8.869534 369.407703 3.554520 359.061187
Spine -8.549244 6.483128 4.611629
Head -17.177832 -4.316746 4.298897
LeftShoulder -16.390601 21.917613 26.862677
LeftArm 18.789520 -27.338519 -28.738873
LeftForeArm 12.527253 -0.000000 12.819313
LeftHand -32.455886 -0.000000 0.748916
LeftHandThumb1 -26.253704 0.000000 33.147579
RightShoulder -20.104098 15.465339 -44.728821
RightArm -10.464211 10.484434 25.080788
RightForeArm -27.847402 0.000000 16.565329
RightHand -16.788624 -0.000000 0.130725
RightHandThumb1 -24.326973 -0.000000 -32.862282
LeftUpLeg 4.075011 4.996323 2.783313
LeftLeg -3.653421 -0.000000 0.000000
LeftFoot -9.997782 7.194985 -27.066169
LeftToeBase 1.292978 -0.000000 -0.000000
RightUpLeg 1.519522 -7.990418 4.730176
RightLeg -1.924058 -0.000000 0.000000
RightFoot -7.191663 3.324498 -7.921218
RightToeBase -3.596916 -0.000000 0.000000
